<svg width="106" height="22" viewBox="0 0 106 22" fill="none" xmlns="http://www.w3.org/2000/svg">
<path d="M90.893 13.3674C90.4834 13.3381 90.1178 13.1623 89.796 12.8399C89.4742 12.5175 89.3133 12.1512 89.3133 11.7409C89.3133 11.3306 89.4888 11.0376 89.8399 10.8617C90.1909 10.6859 90.6443 10.5687 91.2001 10.5101C91.8145 10.4808 92.3995 10.4514 92.9553 10.4221C93.5111 10.3928 94.067 10.3635 94.6228 10.3342C95.1786 9.66019 95.7344 8.98615 96.2902 8.31211C96.846 7.63807 97.4164 6.96403 98.0015 6.28999C96.5096 6.3193 95.0469 6.48048 93.6135 6.77354C92.2094 7.0373 90.9515 7.2864 89.8399 7.52085C89.5181 7.52085 89.1378 7.40362 88.699 7.16917C88.2895 6.93473 88.0408 6.64167 87.9531 6.28999C87.8946 5.99693 87.8946 5.71853 87.9531 5.45477C88.0408 5.16171 88.2456 4.94192 88.5674 4.79539C88.8306 4.70747 89.2987 4.59025 89.9715 4.44372C90.6443 4.26788 91.3903 4.09204 92.2094 3.91621C93.0285 3.74037 93.8622 3.59384 94.7105 3.47662C95.5589 3.35939 96.3048 3.30078 96.9484 3.30078C97.6212 3.30078 98.2501 3.37405 98.8352 3.52058C99.4495 3.66711 100.005 3.96017 100.503 4.39976C100.824 4.72212 100.985 5.20567 100.985 5.8504C100.985 6.46583 100.824 6.93473 100.503 7.25709C100.181 7.66738 99.8298 8.12162 99.4495 8.61982C99.0692 9.11803 98.6597 9.66019 98.2209 10.2463C99.0985 10.217 99.9761 10.2023 100.854 10.2023C101.761 10.2023 102.697 10.2023 103.662 10.2023C103.867 10.2023 104.086 10.2317 104.32 10.2903C104.583 10.3489 104.832 10.4514 105.066 10.598C105.3 10.7152 105.505 10.8764 105.68 11.0815C105.856 11.2574 105.958 11.4772 105.988 11.7409C106.046 12.2977 105.9 12.6641 105.549 12.8399C105.198 12.9864 104.73 13.0304 104.145 12.9718L95.9391 13.2355C95.2663 14.1147 94.652 14.9499 94.0962 15.7412C93.5696 16.5031 93.1455 17.1332 92.8237 17.6314C94.4326 17.6314 96.1585 17.5435 98.0015 17.3677C99.8737 17.1918 101.687 16.972 103.443 16.7083C103.647 16.679 103.867 16.7229 104.101 16.8402C104.335 16.9281 104.554 17.06 104.759 17.2358C104.993 17.3823 105.183 17.5582 105.329 17.7633C105.476 17.9391 105.549 18.1003 105.549 18.2469C105.549 18.3934 105.476 18.5399 105.329 18.6864C105.183 18.833 105.008 18.9649 104.803 19.0821C104.627 19.17 104.423 19.2579 104.189 19.3458C103.984 19.4337 103.808 19.4924 103.662 19.5217C102.697 19.6975 101.658 19.8733 100.547 20.0492C99.4641 20.1957 98.3672 20.3276 97.2555 20.4448C96.1732 20.562 95.1054 20.6499 94.0523 20.7086C92.9992 20.7672 92.0192 20.7818 91.1124 20.7525C90.6443 20.7525 90.2202 20.6939 89.8399 20.5767C89.4596 20.4301 89.1671 20.2397 88.9623 20.0052C88.7868 19.7415 88.699 19.4191 88.699 19.0381C88.7283 18.6571 88.9038 18.2029 89.2256 17.6754C89.7521 16.972 90.264 16.254 90.7613 15.5214C91.2879 14.7887 91.8291 14.0561 92.3849 13.3234L90.893 13.3674Z" fill="#949494"/>
<path d="M80.6162 8.40017C81.172 8.37087 81.7278 8.50274 82.2837 8.7958C82.8395 9.08886 83.1174 9.54311 83.1174 10.1585C83.0589 10.6567 82.781 10.9791 82.2837 11.1256C81.8156 11.2429 81.4353 11.3015 81.1428 11.3015C80.5577 11.3015 79.9288 11.3161 79.256 11.3454C78.5831 11.3747 77.8957 11.4187 77.1936 11.4773C77.1351 12.4444 77.0766 13.3529 77.0181 14.2028C76.9888 15.0526 76.9596 15.8146 76.9303 16.4886C76.9011 17.1334 76.8865 17.6609 76.8865 18.0712C76.8865 18.4814 76.9011 18.7012 76.9303 18.7305C77.5739 18.6133 78.2614 18.4228 78.9927 18.1591C79.7533 17.866 80.4992 17.5583 81.2305 17.2359C81.9911 16.8843 82.7224 16.5326 83.4245 16.1809C84.1559 15.7999 84.8433 15.4483 85.4869 15.1259C85.7794 14.9794 86.0427 14.9354 86.2767 14.994C86.54 15.0526 86.7009 15.1845 86.7594 15.3897C86.8179 15.712 86.774 16.1077 86.6277 16.5766C86.4815 17.0454 86.2182 17.4704 85.8379 17.8514C85.3991 18.203 84.814 18.6133 84.0827 19.0822C83.3806 19.5218 82.6201 19.9467 81.801 20.357C80.9819 20.7673 80.1482 21.1336 79.2998 21.456C78.4808 21.7491 77.7494 21.9249 77.1059 21.9835C76.1405 22.0714 75.4092 21.8077 74.9119 21.1923C74.4146 20.5768 74.1367 19.8002 74.0782 18.8624C74.0197 17.9246 74.005 16.8403 74.0343 15.6095C74.0928 14.3786 74.1513 13.0745 74.2098 11.6971C73.654 11.7557 73.1128 11.8143 72.5863 11.8729C72.0889 11.9022 71.6063 11.9462 71.1382 12.0048C70.7579 12.0048 70.3338 11.9169 69.8657 11.7411C69.4269 11.5652 69.2075 11.2282 69.2075 10.73C69.2075 10.5542 69.2807 10.3197 69.4269 10.0267C69.5732 9.7336 69.895 9.5138 70.3923 9.36727C71.5916 9.16213 72.9227 8.98629 74.3853 8.83976C74.4731 7.46238 74.5755 6.12896 74.6925 4.83949C74.8095 3.55003 74.9119 2.37779 74.9996 1.32277C75.0289 0.971096 75.1313 0.663382 75.3068 0.399627C75.4823 0.135873 75.6725 0.00399619 75.8772 0.00399619C76.3745 -0.0253095 76.8426 0.106567 77.2814 0.399627C77.7494 0.663382 77.9834 0.971096 77.9834 1.32277C77.8664 2.31917 77.7494 3.44746 77.6324 4.70761C77.5447 5.96777 77.4569 7.25724 77.3691 8.57601C77.9542 8.5174 78.51 8.48809 79.0366 8.48809C79.5924 8.45878 80.1189 8.42948 80.6162 8.40017Z" fill="#949494"/>
<path d="M67.4 2.24668C67.3415 2.53974 67.1367 2.70092 66.7857 2.73023C66.4347 2.75953 66.1421 2.77418 65.9081 2.77418C65.1768 2.80349 64.4162 2.87675 63.6264 2.99398C62.8658 3.1112 62.0613 3.28704 61.213 3.52149C60.862 3.63871 60.4817 3.59475 60.0721 3.38961C59.6626 3.18447 59.4139 2.77419 59.3262 2.15876C59.3262 1.92431 59.4139 1.73382 59.5894 1.58729C59.765 1.44076 59.9697 1.30888 60.2038 1.19166C60.5841 1.01582 61.0375 0.869292 61.564 0.752068C62.0906 0.605538 62.6171 0.502967 63.1437 0.444356C63.6995 0.385743 64.2261 0.371089 64.7234 0.400395C65.2207 0.400395 65.6302 0.444355 65.952 0.532274C66.42 0.678804 66.7857 0.898599 67.049 1.19166C67.3415 1.48472 67.4585 1.83639 67.4 2.24668ZM66.3908 16.885C66.5956 17.3539 66.6979 17.8668 66.6979 18.4236C66.7272 18.9511 66.5809 19.3174 66.2592 19.5226C65.8496 19.7863 65.4108 19.7717 64.9428 19.4786C64.4747 19.1856 64.1237 18.7899 63.8897 18.2917C63.5679 17.6763 63.3192 16.929 63.1437 16.0498C62.9682 15.1413 62.8365 14.2475 62.7488 13.3683C62.661 12.4891 62.6025 11.6686 62.5733 10.9066C62.5733 10.1446 62.5733 9.57318 62.5733 9.1922C62.6025 8.78192 62.7195 8.40094 62.9243 8.04927C63.1291 7.6976 63.3924 7.49245 63.7141 7.43384C64.2407 7.46315 64.6649 7.71225 64.9866 8.18114C65.3084 8.62074 65.4547 9.17755 65.4254 9.85159C65.4254 10.3791 65.4401 10.9652 65.4693 11.6099C65.4986 12.2547 65.5571 12.8994 65.6448 13.5441C65.7326 14.1889 65.835 14.819 65.952 15.4344C66.069 16.0205 66.2153 16.5041 66.3908 16.885Z" fill="#949494"/>
<path d="M57.3793 5.01525C56.8528 5.30831 56.297 5.61603 55.7119 5.93839C55.1561 6.26076 54.5856 6.64174 54.0006 7.08133C53.4448 7.49161 52.9036 7.98981 52.377 8.57593C51.8797 9.13275 51.4263 9.80679 51.0168 10.598C50.4317 11.7117 50.0368 12.8546 49.832 14.0269C49.6273 15.1698 49.4956 16.2981 49.4371 17.4117C49.4371 17.9392 49.3055 18.4814 49.0422 19.0382C48.8082 19.5657 48.4718 19.8294 48.033 19.8294C47.4771 19.8294 47.0237 19.551 46.6727 18.9942C46.3509 18.4081 46.1315 17.8513 46.0145 17.3238C45.5172 15.2431 45.1076 13.1916 44.7859 11.1695C44.4641 9.1181 44.1862 7.08133 43.9521 5.05921C43.9521 4.64893 44.0692 4.38517 44.3032 4.26795C44.5665 4.15072 44.859 4.10676 45.1808 4.13607C45.5318 4.16538 45.8682 4.2533 46.19 4.39983C46.5118 4.54636 46.7019 4.7808 46.7604 5.10317C46.8775 6.18749 47.0237 7.33043 47.1992 8.53198C47.3748 9.70422 47.5503 10.7153 47.7258 11.5651C47.8428 10.5687 48.1646 9.60164 48.6912 8.66385C49.2177 7.72606 49.8613 6.87618 50.6219 6.11423C51.4117 5.35227 52.2893 4.70754 53.2546 4.18003C54.2492 3.65252 55.2585 3.30085 56.2823 3.12501C56.7211 3.0664 57.0868 3.0664 57.3793 3.12501C57.6718 3.18363 57.8766 3.2862 57.9936 3.43273C58.1106 3.57926 58.1253 3.8137 58.0375 4.13607C57.979 4.45844 57.7596 4.7515 57.3793 5.01525Z" fill="#949494"/>
<path d="M36.6111 4.8391C37.4887 5.16147 38.22 5.64502 38.8051 6.28975C39.4194 6.93448 39.8874 7.66713 40.2092 8.4877C40.531 9.27896 40.7065 10.0995 40.7358 10.9494C40.7943 11.7993 40.7065 12.5905 40.4725 13.3232C40.1507 14.1438 39.7412 14.9497 39.2439 15.7409C38.7466 16.5322 38.1761 17.2355 37.5326 17.851C36.889 18.4664 36.1577 18.9646 35.3386 19.3456C34.5195 19.7266 33.6127 19.917 32.618 19.917C31.4187 19.917 30.4094 19.6386 29.5904 19.0818C28.7713 18.525 28.1277 17.807 27.6596 16.9278C27.1916 16.0487 26.8844 15.0522 26.7382 13.9386C26.6212 12.825 26.6504 11.7114 26.8259 10.5977C26.9429 9.77716 27.1331 8.9859 27.3964 8.22395C27.6889 7.43268 28.0546 6.74399 28.4934 6.15787C28.9322 5.54245 29.4295 5.04424 29.9853 4.66326C30.5703 4.28229 31.2285 4.0918 31.9599 4.0918C32.3694 4.0918 32.8813 4.17972 33.4956 4.35555C34.11 4.50208 34.6804 4.72188 35.2069 5.01494C35.5872 4.66327 36.0553 4.60465 36.6111 4.8391ZM34.9437 8.04811C34.6219 7.84297 34.2416 7.57921 33.8028 7.25685C33.3933 6.90518 33.0276 6.72934 32.7058 6.72934C32.3548 6.72934 32.0037 6.89052 31.6527 7.21289C31.3309 7.53525 31.0384 7.91623 30.7751 8.35582C30.5411 8.76611 30.3363 9.19104 30.1608 9.63064C29.9853 10.0702 29.8683 10.4219 29.8098 10.6857C29.722 11.1252 29.6635 11.6528 29.6342 12.2682C29.605 12.8836 29.6489 13.499 29.7659 14.1145C29.8829 14.7006 30.1023 15.2427 30.4241 15.7409C30.7751 16.2098 31.287 16.5469 31.9599 16.752C32.3694 16.8692 32.8521 16.8692 33.4079 16.752C33.9637 16.6055 34.5049 16.3564 35.0314 16.0047C35.5872 15.653 36.0992 15.1841 36.5672 14.598C37.0645 14.0119 37.4448 13.3378 37.7081 12.5759C38.0006 11.726 38.0006 10.8468 37.7081 9.93835C37.4448 9.00056 36.889 8.32652 36.0407 7.91623C35.8359 8.06276 35.6311 8.13603 35.4263 8.13603C35.2216 8.13603 35.0607 8.10672 34.9437 8.04811Z" fill="#949494"/>
<path d="M21.7643 21.8078C21.4425 21.8078 21.1061 21.5587 20.7551 21.0605C20.4333 20.5623 20.2578 20.0788 20.2285 19.6099C19.9945 17.9101 19.702 15.932 19.3509 13.6754C19.0291 11.3895 18.5903 8.69338 18.0345 5.58694C17.1569 7.25738 16.294 8.91317 15.4456 10.5543C14.5973 12.1954 13.749 13.8366 12.9006 15.4777C12.3741 16.5034 11.8329 17.0163 11.2771 17.0163C10.458 17.0163 9.81441 16.5913 9.34636 15.7415C8.3225 14.2469 7.25477 12.8548 6.14315 11.5654C5.06078 10.2466 3.93454 8.94248 2.76442 7.65301C2.70591 9.61652 2.72054 11.5507 2.8083 13.4556C2.92531 15.3312 3.11545 17.1628 3.37873 18.9505C3.43724 19.2728 3.39336 19.5659 3.24709 19.8297C3.13008 20.0641 2.99844 20.2106 2.85218 20.2693C2.44263 20.4158 2.03309 20.3279 1.62355 20.0055C1.214 19.6831 0.965352 19.3315 0.877592 18.9505C0.614315 17.8955 0.42417 16.7232 0.307157 15.4338C0.190145 14.1443 0.102386 12.8402 0.0438795 11.5214C0.0146265 10.2026 0 8.89852 0 7.60906C0 6.31959 0.0146265 5.14735 0.0438795 4.09233C0.0438795 2.92009 0.42417 2.33397 1.18475 2.33397C1.6528 2.33397 2.04772 2.50981 2.3695 2.86148C2.69128 3.18385 2.8668 3.65274 2.89606 4.26817C4.35871 5.73347 5.73361 7.24273 7.02074 8.79595C8.33713 10.3199 9.60964 11.8731 10.8383 13.4556C11.8621 11.6093 12.9006 9.71909 13.9537 7.78489C15.0068 5.82139 16.1916 3.9165 17.508 2.07022C17.5665 1.74785 17.7274 1.42548 17.9906 1.10312C18.2539 0.751445 18.5465 0.516996 18.8682 0.399772C19.19 0.282547 19.5264 0.414426 19.8775 0.795405C20.2285 1.17638 20.4625 1.61597 20.5795 2.11418C21.0768 5.07408 21.501 8.03399 21.8521 10.9939C22.2323 13.9538 22.598 16.9137 22.949 19.8736C23.0076 20.4304 22.9052 20.8993 22.6419 21.2803C22.3786 21.632 22.0861 21.8078 21.7643 21.8078Z" fill="#949494"/>
</svg>
